<?xml version="1.0" standalone="no"?>
<!DOCTYPE svg PUBLIC "-//W3C//DTD SVG 20010904//EN"
 "http://www.w3.org/TR/2001/REC-SVG-20010904/DTD/svg10.dtd">
<svg version="1.0" xmlns="http://www.w3.org/2000/svg"
 width="80.000000pt" height="80.000000pt" viewBox="0 0 80.000000 80.000000"
 preserveAspectRatio="xMidYMid meet">

<g transform="translate(0.000000,80.000000) scale(0.100000,-0.100000)"
fill="#000000" stroke="none">
<path d="M330 714 c-102 -44 -152 -153 -95 -209 29 -30 88 -34 138 -9 l32 15
-35 -30 -35 -30 29 -56 c29 -56 48 -67 76 -42 8 6 7 3 -2 -8 -64 -78 -64 -202
2 -252 72 -55 206 12 255 130 50 120 -37 236 -147 198 -26 -9 -30 -9 -20 1 18
18 15 34 -13 79 -33 51 -50 57 -83 28 l-27 -24 27 30 c36 40 60 99 52 130 -14
58 -83 80 -154 49z m70 -31 c-8 -3 -28 -17 -43 -29 -28 -24 -67 -32 -67 -15 0
12 81 51 105 50 14 0 16 -2 5 -6z m40 -43 c0 -19 -11 -42 -30 -62 l-29 -33 -1
31 c0 18 8 38 20 49 11 10 20 27 20 37 0 11 5 16 10 13 6 -3 10 -19 10 -35z
m-110 -78 c0 -7 7 -15 16 -19 13 -5 13 -7 2 -14 -19 -13 -72 -11 -86 3 -12 12
-16 50 -7 60 10 9 75 -17 75 -30z m316 -225 c39 -81 -50 -207 -145 -207 -67 0
-80 91 -25 173 24 37 28 39 35 22 14 -37 9 -67 -16 -97 -14 -16 -25 -38 -25
-49 0 -31 35 -23 63 15 19 25 36 35 66 40 32 5 41 11 41 26 0 14 -9 21 -34 26
-25 4 -36 12 -40 29 -3 13 -9 30 -12 39 -5 13 1 16 35 16 37 0 43 -4 57 -33z"/>
<path d="M615 716 c-42 -18 -93 -79 -100 -120 -9 -46 17 -94 61 -112 48 -20
107 -3 155 45 105 104 17 245 -116 187z m105 -46 c11 -11 20 -30 20 -42 0 -17
-3 -19 -12 -10 -7 7 -22 12 -33 12 -18 0 -45 33 -45 55 0 14 53 2 70 -15z
m-107 -32 c4 -13 -2 -32 -14 -49 -10 -15 -19 -32 -19 -38 0 -19 49 -12 62 9 9
14 23 20 48 20 l35 -1 -33 -29 c-35 -32 -97 -41 -120 -18 -17 17 -15 74 4 103
20 31 30 31 37 3z"/>
<path d="M202 417 c-19 -6 -56 -30 -83 -55 -81 -73 -114 -158 -86 -225 20 -46
48 -60 112 -55 106 9 215 126 215 231 0 59 -11 82 -50 102 -33 17 -60 18 -108
2z m96 -59 c28 -28 1 -118 -51 -166 l-25 -23 2 45 c1 37 8 52 35 80 21 22 31
41 28 50 -10 25 -30 19 -66 -18 -22 -22 -45 -35 -67 -38 -44 -5 -40 8 15 50
45 34 105 44 129 20z m-154 -128 c19 0 25 -7 30 -34 4 -19 12 -37 19 -39 15
-6 -37 -27 -67 -27 -12 0 -27 5 -34 12 -15 15 -16 73 -1 100 10 19 12 20 21 5
5 -10 20 -17 32 -17z"/>
</g>
</svg>
